<svg width="13" height="14" viewBox="0 0 13 14" fill="none" xmlns="http://www.w3.org/2000/svg">
<g clip-path="url(#clip0_286_17)">
<path d="M0.799366 11.4997H11.947C12.4405 11.4997 12.7463 11.2364 12.7463 10.8389C12.7463 10.1544 12.0768 9.55691 11.5063 8.95348C10.9475 8.35541 10.8899 7.13421 10.7734 6.06294C10.6617 3.77954 9.96873 2.14169 8.22577 1.58138C8.01198 0.669087 7.32704 0 6.37186 0C5.41926 0 4.7296 0.669087 4.52056 1.58138C2.77758 2.14169 2.08462 3.77954 1.97287 6.06294C1.85638 7.13421 1.79886 8.35541 1.24008 8.95348C0.664844 9.55691 0 10.1544 0 10.8389C0 11.2364 0.301056 11.4997 0.799366 11.4997ZM6.37186 13.9979C7.48213 13.9979 8.27491 13.207 8.39384 12.2925H4.35251C4.4714 13.207 5.26418 13.9979 6.37186 13.9979Z" fill="white" fill-opacity="0.85"/>
</g>
<defs>
<clipPath id="clip0_286_17">
<rect width="13" height="14" fill="white"/>
</clipPath>
</defs>
</svg>
