<svg width="13" height="13" viewBox="0 0 13 13" fill="none" xmlns="http://www.w3.org/2000/svg">
<g clip-path="url(#clip0_288_24)">
<path fill-rule="evenodd" clip-rule="evenodd" d="M1.11756 6.94907H5.58659C5.77749 6.94907 5.93357 7.13512 5.93357 7.36216V11.712C5.93357 11.9394 5.77758 12.1253 5.58659 12.1253H1.11756C0.926855 12.1253 0.77059 11.9394 0.77059 11.712V7.36216C0.77059 7.13512 0.926855 6.94907 1.11756 6.94907ZM7.41332 0.764648H11.8824C12.0734 0.764648 12.2294 0.950512 12.2294 1.17784V5.52767C12.2294 5.75499 12.0734 5.94067 11.8824 5.94067H7.41332C7.22242 5.94067 7.06663 5.75499 7.06663 5.52767V1.17784C7.06663 0.950512 7.22242 0.764648 7.41332 0.764648ZM1.1114 0.764648H5.58071C5.77161 0.764648 5.92769 0.950512 5.92769 1.17784V5.52767C5.92769 5.75499 5.7717 5.94067 5.58071 5.94067H1.1114C0.920694 5.94067 0.764709 5.75499 0.764709 5.52767V1.17784C0.764709 0.950512 0.920694 0.764648 1.1114 0.764648ZM7.4192 7.05931H11.8883C12.079 7.05931 12.2353 7.24518 12.2353 7.47259V11.8224C12.2353 12.0495 12.079 12.2353 11.8883 12.2353H7.4192C7.2283 12.2353 7.07223 12.0495 7.07223 11.8224V7.47259C7.07223 7.24518 7.2283 7.05931 7.4192 7.05931Z" fill="white"/>
</g>
<defs>
<clipPath id="clip0_288_24">
<rect width="13" height="13" fill="white"/>
</clipPath>
</defs>
</svg>
