<svg width="16" height="21" viewBox="0 0 16 21" fill="none" xmlns="http://www.w3.org/2000/svg">
<g clip-path="url(#clip0_291_90)">
<path d="M8.9875 20.5281C11.125 17.8881 16 11.4895 16 7.89543C16 3.5365 12.4167 0 8 0C3.58333 0 0 3.5365 0 7.89543C0 11.4895 4.875 17.8881 7.0125 20.5281C7.525 21.1573 8.475 21.1573 8.9875 20.5281ZM8 5.26362C9.47276 5.26362 10.6667 6.44192 10.6667 7.89543C10.6667 9.34894 9.47276 10.5272 8 10.5272C6.52724 10.5272 5.33333 9.34894 5.33333 7.89543C5.33333 6.44192 6.52724 5.26362 8 5.26362Z" fill="white"/>
</g>
<defs>
<clipPath id="clip0_291_90">
<rect width="16" height="21" fill="white"/>
</clipPath>
</defs>
</svg>
