<?xml version="1.0" encoding="UTF-8"?>
<!--Generator: Apple Native CoreSVG 232.5-->
<!DOCTYPE svg
PUBLIC "-//W3C//DTD SVG 1.1//EN"
       "http://www.w3.org/Graphics/SVG/1.1/DTD/svg11.dtd">
<svg version="1.1" xmlns="http://www.w3.org/2000/svg" xmlns:xlink="http://www.w3.org/1999/xlink" width="19.9532" height="19.5986">
 <g>
  <rect height="19.5986" opacity="0" width="19.9532" x="0" y="0"/>
  <path d="M9.79443 19.5889C15.1649 19.5889 19.5919 15.1552 19.5919 9.79443C19.5919 4.42695 15.1582 0 9.7877 0C4.42695 0 0 4.42695 0 9.79443C0 15.1552 4.43369 19.5889 9.79443 19.5889ZM9.79443 18.3223C5.07002 18.3223 1.27334 14.5188 1.27334 9.79443C1.27334 5.07002 5.06328 1.26358 9.7877 1.26358C14.5121 1.26358 18.3253 5.07002 18.3253 9.79443C18.3253 14.5188 14.5188 18.3223 9.79443 18.3223Z" fill="#000000" fill-opacity="0.85"/>
  <path d="M4.38467 10.4664L8.78828 10.4792C8.92842 10.4792 9.01904 10.5631 9.01904 10.71L9.0251 15.0678C9.0251 15.7765 9.78565 15.8432 10.0271 15.3332L14.4993 5.82481C14.8062 5.18789 14.2639 4.67656 13.6384 4.97432L4.13809 9.46436C3.6002 9.71865 3.70391 10.4664 4.38467 10.4664Z" fill="#000000" fill-opacity="0.85"/>
 </g>
</svg>
