<svg width="20" height="20" viewBox="0 0 20 20" fill="none" xmlns="http://www.w3.org/2000/svg">
<g clip-path="url(#clip0_288_33)">
<path d="M0 7.97956C0 12.3748 3.5503 15.9591 7.90393 15.9591C9.6913 15.9591 11.326 15.3548 12.6471 14.3408L17.9468 19.7078C18.1304 19.8933 18.3822 19.9967 18.6513 19.9967C19.2363 19.9967 19.6233 19.5522 19.6233 18.9942C19.6233 18.729 19.5232 18.485 19.341 18.3042L14.0655 12.9507C15.1552 11.5893 15.8078 9.85988 15.8078 7.97956C15.8078 3.58427 12.2575 0 7.90393 0C3.5503 0 0 3.58427 0 7.97956ZM1.32757 7.97956C1.32757 4.32107 4.28012 1.33709 7.90393 1.33709C11.5277 1.33709 14.4803 4.32107 14.4803 7.97956C14.4803 11.638 11.5277 14.6189 7.90393 14.6189C4.28012 14.6189 1.32757 11.638 1.32757 7.97956Z" fill="white" fill-opacity="0.85"/>
</g>
<defs>
<clipPath id="clip0_288_33">
<rect width="20" height="20" fill="white"/>
</clipPath>
</defs>
</svg>
