<svg width="16" height="16" viewBox="0 0 16 16" fill="none" xmlns="http://www.w3.org/2000/svg">
<g clip-path="url(#clip0_289_41)">
<path d="M6.38794 0.165189C6.67049 0.1066 6.95304 0.0649368 7.23169 0.0375953C7.51815 0.0102538 7.802 -0.00276598 8.08195 -0.00016203C8.2395 0.00113995 8.3658 0.130036 8.3645 0.287575C8.3632 0.408659 8.28638 0.511515 8.1796 0.551876C6.9882 1.02059 6.03507 1.89422 5.45044 2.97616C4.87492 4.03987 4.65617 5.30409 4.91788 6.58003L4.91919 6.58915C5.21736 8.02913 6.06893 9.21263 7.20825 9.96257C8.34627 10.7125 9.76945 11.0276 11.2096 10.7333L11.2187 10.732C12.2551 10.5172 13.1575 10.0173 13.8619 9.32851C14.5911 8.61632 15.1067 7.70364 15.3372 6.70372C15.3723 6.55009 15.526 6.45504 15.6783 6.49019C15.7942 6.51754 15.8775 6.61128 15.8958 6.72195C16.2395 8.83115 15.72 10.8974 14.5859 12.5431C13.4569 14.181 11.7174 15.4035 9.6145 15.8358C7.45044 16.2811 5.31111 15.8071 3.60148 14.6822C1.89054 13.5534 0.610593 11.7762 0.16528 9.61234C-0.269616 7.49923 0.17179 5.40955 1.2408 3.72089C2.31502 2.02702 4.02075 0.734153 6.10799 0.227684C6.14835 0.217268 6.19523 0.206852 6.24601 0.195135H6.24731L6.38794 0.165189ZM6.75252 0.676866C6.66919 0.691188 6.58585 0.706812 6.50382 0.723737L6.37231 0.752381C6.33455 0.761495 6.29028 0.770609 6.2421 0.782326C4.3046 1.25234 2.71997 2.45276 1.72387 4.02685C0.730384 5.59574 0.320228 7.53568 0.723874 9.49646C1.13794 11.5054 2.32674 13.1563 3.91528 14.2031C5.50252 15.2486 7.4895 15.6887 9.49861 15.2746C11.4517 14.8723 13.0676 13.737 14.1158 12.2163C14.9322 11.0328 15.4049 9.61494 15.4296 8.12678C15.134 8.72309 14.7395 9.26731 14.2629 9.73342C13.4817 10.4964 12.4804 11.0523 11.3319 11.2893H11.3306C9.73429 11.6174 8.15617 11.2685 6.89445 10.4378C5.63403 9.60713 4.69002 8.29604 4.3619 6.70112V6.69981C4.06893 5.28326 4.30981 3.88233 4.94783 2.70405C5.38012 1.90463 5.99601 1.20677 6.75252 0.676866Z" fill="black"/>
</g>
<defs>
<clipPath id="clip0_289_41">
<rect width="16" height="16" fill="white"/>
</clipPath>
</defs>
</svg>
