<?xml version="1.0" encoding="UTF-8"?>
<!--Generator: Apple Native CoreSVG 232.5-->
<!DOCTYPE svg
PUBLIC "-//W3C//DTD SVG 1.1//EN"
       "http://www.w3.org/Graphics/SVG/1.1/DTD/svg11.dtd">
<svg version="1.1" xmlns="http://www.w3.org/2000/svg" xmlns:xlink="http://www.w3.org/1999/xlink" width="18.5166" height="20.0965">
 <g>
  <rect height="20.0965" opacity="0" width="18.5166" x="0" y="0"/>
  <path d="M1.13858 16.5074L17.0167 16.5074C17.7197 16.5074 18.1553 16.1295 18.1553 15.5589C18.1553 14.5763 17.2016 13.7186 16.389 12.8524C15.5931 11.9939 15.5111 10.2409 15.3452 8.70313C15.186 5.42539 14.199 3.07432 11.7164 2.27002C11.4119 0.96045 10.4363 0 9.07578 0C7.71895 0 6.73662 0.96045 6.43887 2.27002C3.95625 3.07432 2.96924 5.42539 2.81006 8.70313C2.64414 10.2409 2.56221 11.9939 1.76631 12.8524C0.946973 13.7186 0 14.5763 0 15.5589C0 16.1295 0.42881 16.5074 1.13858 16.5074ZM9.07578 20.0935C10.6572 20.0935 11.7864 18.9582 11.9558 17.6455L6.19951 17.6455C6.36885 18.9582 7.49805 20.0935 9.07578 20.0935Z" fill="#000000" fill-opacity="0.85"/>
 </g>
</svg>
