<?xml version="1.0" encoding="UTF-8"?>
<!--Generator: Apple Native CoreSVG 232.5-->
<!DOCTYPE svg
PUBLIC "-//W3C//DTD SVG 1.1//EN"
       "http://www.w3.org/Graphics/SVG/1.1/DTD/svg11.dtd">
<svg version="1.1" xmlns="http://www.w3.org/2000/svg" xmlns:xlink="http://www.w3.org/1999/xlink" width="18.5166" height="22.2035">
 <g>
  <rect height="22.2035" opacity="0" width="18.5166" x="0" y="0"/>
  <path d="M10.2499 1.44629C9.99185 1.72441 9.77338 2.03894 9.6017 2.38098C9.4424 2.32331 9.26641 2.29317 9.07578 2.29317C8.13496 2.29317 7.54297 3.0333 7.47432 4.03379C7.44942 4.31192 7.28848 4.43213 7.00498 4.50586C5.30782 4.96787 4.18662 6.37373 4.00254 9.99952C3.81778 12.0461 3.6583 13.7872 2.77051 14.744C2.21426 15.3468 1.5587 16.041 1.44043 16.4302L1.44043 16.5413L16.7081 16.5413L16.7081 16.4302C16.5898 16.041 15.941 15.3468 15.378 14.744C14.497 13.7872 14.3375 12.0461 14.1527 9.99952C14.1284 9.52098 14.0878 9.08111 14.0307 8.67933C14.4409 8.63032 14.8332 8.51926 15.1993 8.35742C15.2729 8.83396 15.3197 9.34268 15.3452 9.87862C15.5111 11.4164 15.5931 13.1694 16.389 14.0279C17.2016 14.894 18.1553 15.7518 18.1553 16.7344C18.1553 17.308 17.7197 17.6829 17.0167 17.6829L12.3991 17.6829C12.3392 19.5199 10.9826 21.0183 9.07578 21.0183C7.17266 21.0183 5.81611 19.5132 5.75615 17.6829L1.13858 17.6829C0.42881 17.6829 0 17.308 0 16.7344C0 15.7518 0.946973 14.894 1.76631 14.0279C2.56221 13.1694 2.64414 11.4164 2.81006 9.87862C2.96924 6.53653 3.95625 4.25283 6.43887 3.44551C6.70967 2.13594 7.71895 1.17549 9.07578 1.17549C9.50718 1.17549 9.90258 1.27205 10.2499 1.44629ZM6.93145 17.6829C7.00283 19.0686 7.87666 19.9471 9.07578 19.9471C10.2786 19.9471 11.1457 19.0686 11.2238 17.6829Z" fill="#000000"/>
  <path d="M13.4785 7.58106C15.2395 7.58106 16.7098 6.12422 16.7098 4.35957C16.7098 2.58516 15.2395 1.12832 13.4785 1.12832C11.7071 1.12832 10.2503 2.58516 10.2503 4.35957C10.2503 6.12422 11.7071 7.58106 13.4785 7.58106Z" fill="#000000"/>
 </g>
</svg>
