<?xml version="1.0" encoding="UTF-8"?>
<!--Generator: Apple Native CoreSVG 232.5-->
<!DOCTYPE svg
PUBLIC "-//W3C//DTD SVG 1.1//EN"
       "http://www.w3.org/Graphics/SVG/1.1/DTD/svg11.dtd">
<svg version="1.1" xmlns="http://www.w3.org/2000/svg" xmlns:xlink="http://www.w3.org/1999/xlink" width="29.7853" height="20.4363">
 <g>
  <rect height="20.4363" opacity="0" width="29.7853" x="0" y="0"/>
  <path d="M25.1875 14.5189L26.873 16.2075C27.1189 16.4571 27.1099 16.8476 26.873 17.0807C26.6332 17.3175 26.2458 17.337 25.9999 17.0874L24.3076 15.3988C24.0678 15.159 24.0708 14.7588 24.3076 14.5189C24.5475 14.2889 24.9409 14.2858 25.1875 14.5189ZM24.5202 10.0065C24.5202 12.1499 23.0925 13.9679 21.1435 14.5507C21.1281 14.1646 21.0604 13.7955 20.9493 13.4466C22.3891 12.9745 23.4025 11.6292 23.4025 10.0065C23.4025 7.98018 21.8162 6.38408 19.7959 6.38408C17.7726 6.38408 16.1795 7.98018 16.1795 10.0065C16.1795 10.049 16.1802 10.0913 16.1856 10.1322C16.1594 10.1286 16.132 10.1281 16.1045 10.1278C15.8507 9.64832 15.5552 9.20758 15.2197 8.81481C15.7453 6.77393 17.6024 5.2627 19.7959 5.2627C22.397 5.2627 24.5202 7.39268 24.5202 10.0065ZM29.7853 10.0065C29.7853 10.3438 29.5087 10.6271 29.1722 10.6271L26.7836 10.6271C26.4599 10.6271 26.1698 10.3438 26.1698 10.0065C26.1698 9.67979 26.4599 9.38975 26.7836 9.38975L29.1722 9.38975C29.5087 9.38975 29.7853 9.67979 29.7853 10.0065ZM26.873 2.92939C27.1099 3.179 27.1189 3.57315 26.873 3.81602L25.1942 5.50459C24.9409 5.75117 24.5475 5.73467 24.3076 5.50459C24.0708 5.25801 24.0678 4.86455 24.3076 4.63144L25.9999 2.92939C26.2458 2.68652 26.6332 2.70234 26.873 2.92939ZM13.5889 2.92939L15.2842 4.63144C15.5173 4.85781 15.5112 5.26475 15.2774 5.50459C15.0376 5.73467 14.6374 5.74444 14.3976 5.50459L12.7157 3.80928C12.4729 3.57315 12.4856 3.179 12.7225 2.92939C12.9623 2.70234 13.3497 2.69326 13.5889 2.92939ZM20.4255 0.616798L20.4255 3.00605C20.4255 3.32676 20.1324 3.61309 19.7989 3.61309C19.4654 3.61309 19.1791 3.32676 19.1791 3.00605L19.1791 0.616798C19.1791 0.29004 19.4654 0 19.7989 0C20.1324 0 20.4255 0.29004 20.4255 0.616798Z" fill="#000000" fill-opacity="0.85"/>
  <path d="M5.62568 19.5607L16.2526 19.5607C19.015 19.5607 21.1571 17.4863 21.1571 14.8165C21.1571 12.1639 18.9797 10.1578 16.1045 10.1278C14.968 7.98008 12.9936 6.61025 10.53 6.61025C7.36113 6.61025 4.71963 9.11631 4.41553 12.3171C2.79072 12.7916 1.62734 14.1434 1.62734 15.9268C1.62734 18.0066 3.18691 19.5607 5.62568 19.5607ZM5.59873 18.3548C3.80234 18.3548 2.83633 17.2925 2.83633 15.9537C2.83633 14.78 3.57129 13.8105 5.03711 13.4024C5.44297 13.2937 5.57568 13.1212 5.60567 12.72C5.8249 9.93418 7.99238 7.81924 10.53 7.81924C12.6152 7.81924 14.1558 9.0125 15.0768 10.8387C15.2516 11.192 15.4594 11.3075 15.8757 11.3075C18.368 11.3075 19.9512 12.9066 19.9512 14.8563C19.9512 16.7937 18.3427 18.3548 16.2698 18.3548Z" fill="#000000" fill-opacity="0.85"/>
 </g>
</svg>
