<?xml version="1.0" encoding="UTF-8"?>
<!--Generator: Apple Native CoreSVG 232.5-->
<!DOCTYPE svg
PUBLIC "-//W3C//DTD SVG 1.1//EN"
       "http://www.w3.org/Graphics/SVG/1.1/DTD/svg11.dtd">
<svg version="1.1" xmlns="http://www.w3.org/2000/svg" xmlns:xlink="http://www.w3.org/1999/xlink" width="16.7091" height="17.417">
 <g>
  <rect height="17.417" opacity="0" width="16.7091" x="0" y="0"/>
  <path d="M1.55488 17.4103L14.7929 17.4103C15.753 17.4103 16.3478 16.9341 16.3478 16.175C16.3478 13.6676 13.2116 10.2092 8.17051 10.2092C3.13613 10.2092 0 13.6676 0 16.175C0 16.9341 0.594727 17.4103 1.55488 17.4103ZM8.18633 8.45811C10.2943 8.45811 12.0472 6.59522 12.0472 4.175C12.0472 1.82646 10.2822 0 8.18633 0C6.09043 0 4.32246 1.85039 4.32246 4.18848C4.32246 6.59522 6.07158 8.45811 8.18633 8.45811Z" fill="#000000" fill-opacity="0.85"/>
 </g>
</svg>
