<?xml version="1.0" encoding="UTF-8"?>
<!--Generator: Apple Native CoreSVG 232.5-->
<!DOCTYPE svg
PUBLIC "-//W3C//DTD SVG 1.1//EN"
       "http://www.w3.org/Graphics/SVG/1.1/DTD/svg11.dtd">
<svg version="1.1" xmlns="http://www.w3.org/2000/svg" xmlns:xlink="http://www.w3.org/1999/xlink" width="21.3118" height="21.0074">
 <g>
  <rect height="21.0074" opacity="0" width="21.3118" x="0" y="0"/>
  <path d="M10.4786 3.54756C10.8316 3.54756 11.1187 3.26055 11.1187 2.90078L11.1187 0.646779C11.1187 0.283985 10.8316 0 10.4786 0C10.1188 0 9.83184 0.283985 9.83184 0.646779L9.83184 2.90078C9.83184 3.26055 10.1188 3.54756 10.4786 3.54756ZM15.3788 5.5919C15.6352 5.83545 16.036 5.84219 16.2954 5.5919L17.8955 3.9918C18.1391 3.74219 18.1391 3.33154 17.8955 3.0752C17.6459 2.83164 17.242 2.83164 16.9856 3.0752L15.3788 4.68203C15.1353 4.93838 15.1353 5.34229 15.3788 5.5919ZM17.4127 10.4988C17.4127 10.8519 17.7034 11.1389 18.0564 11.1389L20.3104 11.1389C20.6665 11.1389 20.9505 10.8519 20.9505 10.4988C20.9505 10.1458 20.6665 9.85205 20.3104 9.85205L18.0564 9.85205C17.7034 9.85205 17.4127 10.1458 17.4127 10.4988ZM15.3788 15.4058C15.1353 15.6621 15.1353 16.063 15.3788 16.3156L16.9856 17.9292C17.242 18.163 17.6459 18.1563 17.8955 17.9225C18.1391 17.6631 18.1391 17.2622 17.8955 17.0126L16.2887 15.4058C16.036 15.1689 15.6352 15.1689 15.3788 15.4058ZM10.4786 17.4501C10.1188 17.4501 9.83184 17.7371 9.83184 18.0901L9.83184 20.3509C9.83184 20.7039 10.1188 20.9909 10.4786 20.9909C10.8316 20.9909 11.1187 20.7039 11.1187 20.3509L11.1187 18.0901C11.1187 17.7371 10.8316 17.4501 10.4786 17.4501ZM5.57168 15.4058C5.31533 15.1689 4.90771 15.1689 4.65508 15.4058L3.05498 17.0059C2.81445 17.2555 2.81445 17.6563 3.04824 17.9157C3.30088 18.1495 3.7085 18.1563 3.96485 17.9225L5.56494 16.3156C5.8085 16.063 5.8085 15.6621 5.57168 15.4058ZM3.54082 10.4988C3.54082 10.1458 3.24707 9.85205 2.89404 9.85205L0.640041 9.85205C0.283985 9.85205 0 10.1458 0 10.4988C0 10.8519 0.283985 11.1389 0.640041 11.1389L2.89404 11.1389C3.24707 11.1389 3.54082 10.8519 3.54082 10.4988ZM5.56494 5.5919C5.8085 5.34902 5.8085 4.93467 5.57168 4.68203L3.97158 3.0752C3.72197 2.83838 3.31436 2.83164 3.06172 3.0752C2.82119 3.33154 2.82119 3.74219 3.05498 3.98506L4.65508 5.5919C4.90771 5.83545 5.30859 5.83545 5.56494 5.5919Z" fill="#000000" fill-opacity="0.85"/>
  <path d="M10.4628 15.3128C13.0898 15.3128 15.27 13.1326 15.27 10.4988C15.27 7.8583 13.0898 5.67812 10.4628 5.67812C7.83574 5.67812 5.65859 7.8583 5.65859 10.4988C5.65859 13.1326 7.83574 15.3128 10.4628 15.3128ZM10.4628 14.1547C8.46465 14.1547 6.80694 12.497 6.80694 10.4988C6.80694 8.49395 8.46465 6.83623 10.4628 6.83623C12.4609 6.83623 14.1217 8.49395 14.1217 10.4988C14.1217 12.497 12.4609 14.1547 10.4628 14.1547Z" fill="#000000" fill-opacity="0.85"/>
 </g>
</svg>
