<svg width="134" height="21" viewBox="0 0 134 21" fill="none" xmlns="http://www.w3.org/2000/svg">
<g clip-path="url(#clip0_291_51)">
<path fill-rule="evenodd" clip-rule="evenodd" d="M15.1494 4.29614L12.418 15.3358H12.3805L9.31118 4.29614H7.60289L4.53356 15.3358H4.49604L1.7646 4.29614H0L3.68879 17.7393H5.28447L8.43825 6.96989H8.47582L11.6296 17.7393H13.2252L16.9141 4.29614H15.1494Z" fill="black"/>
<path fill-rule="evenodd" clip-rule="evenodd" d="M21.2787 7.8643C18.613 7.8643 16.8859 9.92317 16.8859 12.923V12.9323C16.8859 15.9787 18.5754 17.9257 21.3819 17.9257C23.5126 17.9257 25.1083 16.6587 25.4274 15.0563L25.4462 14.9632H23.8412L23.813 15.047C23.5314 15.8761 22.6585 16.491 21.4195 16.491C19.683 16.491 18.5754 15.3265 18.5379 13.3328H25.5682V12.7366C25.5682 9.82996 23.9444 7.8643 21.2787 7.8643ZM18.5661 12.0659C18.7444 10.2585 19.852 9.29899 21.2693 9.29899C22.696 9.29899 23.7473 10.184 23.9068 12.0659H18.5661Z" fill="black"/>
<path fill-rule="evenodd" clip-rule="evenodd" d="M31.031 7.86426C28.7314 7.86426 27.3328 9.1499 27.1921 10.743L27.1827 10.8454H28.7596L28.7784 10.7616C28.9661 9.89519 29.7545 9.29895 31.0123 9.29895C32.3733 9.29895 33.1524 10.0163 33.1524 11.1994V12.0099L30.3553 12.1683C28.1119 12.2987 26.8167 13.3328 26.8167 14.9818V15.0004C26.8167 16.7612 28.1213 17.9257 30.0643 17.9257C31.369 17.9257 32.5423 17.227 33.1149 16.1649H33.1524V17.7393H34.7856V11.0411C34.7856 9.10331 33.34 7.86426 31.031 7.86426ZM33.1523 14.0595C33.1523 15.4662 31.9697 16.5189 30.4303 16.5189C29.257 16.5189 28.4873 15.932 28.4873 15.0004V14.9818C28.4873 14.0781 29.2382 13.5005 30.5429 13.426L33.1523 13.2676L33.1523 14.0595Z" fill="black"/>
<path fill-rule="evenodd" clip-rule="evenodd" d="M39.0469 5.43262H37.3573V8.05044H35.9306V9.39196H37.3573V15.2705C37.3573 17.1244 38.2396 17.9256 40.0324 17.9256C40.3516 17.9256 40.6989 17.8883 40.9054 17.8603V16.5468C40.7646 16.5561 40.5769 16.584 40.3797 16.584C39.5068 16.584 39.0469 16.2952 39.0469 15.2612V9.392H40.9054V8.05048H39.0469V5.43262Z" fill="black"/>
<path fill-rule="evenodd" clip-rule="evenodd" d="M47.4476 7.86424C45.9928 7.86424 44.9321 8.50706 44.4065 9.59705H44.3689V4.29614H42.7357V17.7393H44.3689V12.0844C44.3689 10.4355 45.3732 9.29889 46.8844 9.29889C48.405 9.29889 49.3061 10.333 49.3061 12.0844V17.7393H50.9393V11.8049C50.9393 9.45729 49.522 7.86424 47.4476 7.86424Z" fill="black"/>
<path fill-rule="evenodd" clip-rule="evenodd" d="M56.9277 7.8643C54.262 7.8643 52.5349 9.92317 52.5349 12.923V12.9323C52.5349 15.9787 54.2245 17.9257 57.031 17.9257C59.1616 17.9257 60.7573 16.6587 61.0765 15.0563L61.0953 14.9632H59.4902L59.462 15.047C59.1805 15.8761 58.3075 16.491 57.0685 16.491C55.3321 16.491 54.2245 15.3265 54.187 13.3328H61.2173V12.7366C61.2173 9.82996 59.5934 7.8643 56.9277 7.8643ZM54.2151 12.0659C54.3934 10.2585 55.501 9.29899 56.9184 9.29899C58.3451 9.29899 59.3963 10.184 59.5559 12.0659H54.2151Z" fill="black"/>
<path fill-rule="evenodd" clip-rule="evenodd" d="M64.5306 9.6902H64.493V8.05056H62.8598V17.7393H64.493V11.7584C64.493 10.2864 65.319 9.41073 66.5862 9.41073C66.9804 9.41073 67.3277 9.45731 67.4591 9.5039V7.92949C67.3277 7.91084 67.0837 7.86426 66.8021 7.86426C65.7039 7.86426 64.8591 8.57223 64.5306 9.6902Z" fill="black"/>
<path fill-rule="evenodd" clip-rule="evenodd" d="M74.527 10.2864L73.0252 9.96031C71.2606 9.57836 70.444 8.88896 70.444 7.78966V7.78036C70.444 6.48542 71.6267 5.62832 73.4382 5.61902C75.1559 5.61902 76.3104 6.42954 76.5169 7.79901L76.5357 7.92942H78.2253L78.2159 7.78966C78.0657 5.59108 76.1321 4.07251 73.4852 4.07251C70.6975 4.07251 68.7264 5.61898 68.717 7.82691V7.83621C68.717 9.80191 69.956 10.9851 72.6029 11.5627L74.1047 11.8887C75.9632 12.2986 76.7422 12.9601 76.7422 14.1432V14.1525C76.7422 15.5407 75.5126 16.4164 73.5603 16.4164C71.5986 16.4164 70.2845 15.5872 70.0874 14.2364L70.0686 14.106H68.379L68.3884 14.2364C68.5574 16.5375 70.5379 17.9628 73.4664 17.9628C76.5639 17.9628 78.4693 16.4536 78.4693 14.0687V14.0594C78.4693 12.0098 77.3054 10.8919 74.527 10.2864Z" fill="black"/>
<path fill-rule="evenodd" clip-rule="evenodd" d="M84.9555 7.86426C83.557 7.86426 82.4682 8.56296 81.8581 9.69024H81.8205V8.0506H80.1869V21H81.8205V16.1184H81.8581C82.4681 17.2363 83.6039 17.9257 84.9837 17.9257C87.4335 17.9257 89.1043 15.96 89.1043 12.9043V12.895C89.1043 9.83934 87.4523 7.86426 84.9555 7.86426ZM87.4335 12.9043C87.4335 15.1122 86.3635 16.491 84.6364 16.491C82.9938 16.491 81.8111 15.0656 81.8111 12.9043V12.895C81.8111 10.7243 82.9844 9.29895 84.6364 9.29895C86.3635 9.29895 87.4335 10.6684 87.4335 12.895V12.9043Z" fill="black"/>
<path d="M92.4646 4.29614H90.8314V17.7393H92.4646V4.29614Z" fill="black"/>
<path fill-rule="evenodd" clip-rule="evenodd" d="M98.4906 7.86426C96.1909 7.86426 94.7924 9.1499 94.6516 10.743L94.6422 10.8454H96.2191L96.2379 10.7616C96.4256 9.89519 97.2141 9.29895 98.4718 9.29895C99.8328 9.29895 100.612 10.0163 100.612 11.1994V12.0099L97.8148 12.1683C95.5715 12.2987 94.2762 13.3328 94.2762 14.9818V15.0004C94.2762 16.7612 95.5809 17.9257 97.5238 17.9257C98.8285 17.9257 100.002 17.227 100.574 16.1649H100.612V17.7393H102.245V11.0411C102.245 9.10331 100.8 7.86426 98.4906 7.86426ZM100.612 14.0595C100.612 15.4662 99.4292 16.5189 97.8898 16.5189C96.7166 16.5189 95.9469 15.932 95.9469 15.0004V14.9818C95.9469 14.0781 96.6978 13.5005 98.0025 13.426L100.612 13.2676L100.612 14.0595Z" fill="black"/>
<path fill-rule="evenodd" clip-rule="evenodd" d="M108.891 12.4012L107.342 12.0285C106.262 11.7677 105.821 11.3112 105.821 10.6497V10.6404C105.821 9.78337 106.553 9.21508 107.736 9.21508C108.947 9.21508 109.67 9.83926 109.801 10.7802L109.81 10.8454H111.368L111.359 10.7243C111.237 9.10331 109.876 7.86426 107.736 7.86426C105.624 7.86426 104.15 9.04742 104.15 10.715V10.7243C104.15 12.1217 105.042 12.9695 106.882 13.4074L108.431 13.78C109.538 14.0502 109.904 14.4415 109.904 15.1402V15.1495C109.904 16.0252 109.116 16.5748 107.792 16.5748C106.459 16.5748 105.737 16.0065 105.54 15.0377L105.521 14.9445H103.888L103.897 15.0283C104.094 16.7611 105.483 17.9256 107.783 17.9256C109.96 17.9256 111.575 16.7332 111.575 15.0377V15.0284C111.575 13.6495 110.862 12.8763 108.891 12.4012Z" fill="black"/>
<path fill-rule="evenodd" clip-rule="evenodd" d="M118.061 7.86424C116.606 7.86424 115.545 8.50706 115.02 9.59705H114.982V4.29614H113.349V17.7393H114.982V12.0844C114.982 10.4355 115.987 9.29889 117.498 9.29889C119.018 9.29889 119.919 10.333 119.919 12.0844V17.7393H121.553V11.8049C121.553 9.45729 120.135 7.86424 118.061 7.86424Z" fill="black"/>
<path d="M124.631 17.8697C125.222 17.8697 125.701 17.3942 125.701 16.8077C125.701 16.2211 125.222 15.7456 124.631 15.7456C124.04 15.7456 123.561 16.2211 123.561 16.8077C123.561 17.3942 124.04 17.8697 124.631 17.8697Z" fill="black"/>
<path fill-rule="evenodd" clip-rule="evenodd" d="M130.488 4.93186C131.501 3.25323 131.539 1.93861 131.102 1.09427C130.83 0.568468 130.38 0.223448 129.857 0.0779673C129.345 -0.0650094 128.766 -0.0134948 128.227 0.250318C127.288 0.710292 126.464 1.8202 126.366 3.67222C126.301 4.89521 126.471 5.71618 126.78 6.21543C127.005 6.58096 127.303 6.7873 127.643 6.86051C127.968 6.93095 128.32 6.87288 128.672 6.71241C129.317 6.41843 129.987 5.76201 130.488 4.93186ZM127.795 6.16602C127.642 6.13295 127.502 6.03024 127.387 5.84449C127.15 5.46187 127.024 4.77899 127.08 3.71081C127.163 2.15552 127.81 1.24483 128.544 0.88475C128.92 0.700872 129.316 0.66319 129.662 0.75974C129.999 0.853945 130.29 1.07741 130.467 1.41838C130.802 2.06756 130.74 3.13271 129.875 4.56645C129.445 5.27907 128.891 5.83328 128.376 6.06832C128.163 6.16467 127.964 6.20251 127.795 6.16602Z" fill="black"/>
<path fill-rule="evenodd" clip-rule="evenodd" d="M124.088 5.03189C123.534 -0.553377 119.7 1.66429 121.786 5.95773C123.421 9.31921 124.322 7.39659 124.088 5.03189Z" fill="black"/>
<path fill-rule="evenodd" clip-rule="evenodd" d="M129.707 8.19728C126.948 10.7338 129.065 11.0249 131.274 10.109C136.491 7.94586 133.231 4.95782 129.707 8.19728Z" fill="black"/>
<path d="M15.1494 4.29614L12.418 15.3358H12.3805L9.31118 4.29614H7.60289L4.53356 15.3358H4.49604L1.7646 4.29614H0L3.68879 17.7393H5.28447L8.43825 6.96989H8.47582L11.6296 17.7393H13.2252L16.9141 4.29614H15.1494Z" fill="url(#paint0_linear_291_51)"/>
<path d="M21.2787 7.8643C18.613 7.8643 16.8859 9.92317 16.8859 12.923V12.9323C16.8859 15.9787 18.5754 17.9257 21.3819 17.9257C23.5126 17.9257 25.1083 16.6587 25.4274 15.0563L25.4462 14.9632H23.8412L23.813 15.047C23.5314 15.8761 22.6585 16.491 21.4195 16.491C19.683 16.491 18.5754 15.3265 18.5379 13.3328H25.5682V12.7366C25.5682 9.82996 23.9444 7.8643 21.2787 7.8643ZM18.5661 12.0659C18.7444 10.2585 19.852 9.29899 21.2693 9.29899C22.696 9.29899 23.7473 10.184 23.9068 12.0659H18.5661Z" fill="url(#paint1_linear_291_51)"/>
<path d="M31.031 7.86426C28.7314 7.86426 27.3328 9.1499 27.1921 10.743L27.1827 10.8454H28.7596L28.7784 10.7616C28.9661 9.89519 29.7545 9.29895 31.0123 9.29895C32.3733 9.29895 33.1524 10.0163 33.1524 11.1994V12.0099L30.3553 12.1683C28.1119 12.2987 26.8167 13.3328 26.8167 14.9818V15.0004C26.8167 16.7612 28.1213 17.9257 30.0643 17.9257C31.369 17.9257 32.5423 17.227 33.1149 16.1649H33.1524V17.7393H34.7856V11.0411C34.7856 9.10331 33.34 7.86426 31.031 7.86426ZM33.1523 14.0595C33.1523 15.4662 31.9697 16.5189 30.4303 16.5189C29.257 16.5189 28.4873 15.932 28.4873 15.0004V14.9818C28.4873 14.0781 29.2382 13.5005 30.5429 13.426L33.1523 13.2676L33.1523 14.0595Z" fill="url(#paint2_linear_291_51)"/>
<path d="M39.0469 5.43262H37.3573V8.05044H35.9306V9.39196H37.3573V15.2705C37.3573 17.1244 38.2396 17.9256 40.0324 17.9256C40.3516 17.9256 40.6989 17.8883 40.9054 17.8603V16.5468C40.7646 16.5561 40.5769 16.584 40.3797 16.584C39.5068 16.584 39.0469 16.2952 39.0469 15.2612V9.392H40.9054V8.05048H39.0469V5.43262Z" fill="url(#paint3_linear_291_51)"/>
<path d="M47.4476 7.86424C45.9928 7.86424 44.9321 8.50706 44.4065 9.59705H44.3689V4.29614H42.7357V17.7393H44.3689V12.0844C44.3689 10.4355 45.3732 9.29889 46.8844 9.29889C48.405 9.29889 49.3061 10.333 49.3061 12.0844V17.7393H50.9393V11.8049C50.9393 9.45729 49.522 7.86424 47.4476 7.86424Z" fill="url(#paint4_linear_291_51)"/>
<path d="M56.9277 7.8643C54.262 7.8643 52.5349 9.92317 52.5349 12.923V12.9323C52.5349 15.9787 54.2245 17.9257 57.031 17.9257C59.1616 17.9257 60.7573 16.6587 61.0765 15.0563L61.0953 14.9632H59.4902L59.462 15.047C59.1805 15.8761 58.3075 16.491 57.0685 16.491C55.3321 16.491 54.2245 15.3265 54.187 13.3328H61.2173V12.7366C61.2173 9.82996 59.5934 7.8643 56.9277 7.8643ZM54.2151 12.0659C54.3934 10.2585 55.501 9.29899 56.9184 9.29899C58.3451 9.29899 59.3963 10.184 59.5559 12.0659H54.2151Z" fill="url(#paint5_linear_291_51)"/>
<path d="M64.5306 9.6902H64.493V8.05056H62.8598V17.7393H64.493V11.7584C64.493 10.2864 65.319 9.41073 66.5862 9.41073C66.9804 9.41073 67.3277 9.45731 67.4591 9.5039V7.92949C67.3277 7.91084 67.0837 7.86426 66.8021 7.86426C65.7039 7.86426 64.8591 8.57223 64.5306 9.6902Z" fill="url(#paint6_linear_291_51)"/>
<path d="M74.527 10.2864L73.0252 9.96031C71.2606 9.57836 70.444 8.88896 70.444 7.78966V7.78036C70.444 6.48542 71.6267 5.62832 73.4382 5.61902C75.1559 5.61902 76.3104 6.42954 76.5169 7.79901L76.5357 7.92942H78.2253L78.2159 7.78966C78.0657 5.59108 76.1321 4.07251 73.4852 4.07251C70.6975 4.07251 68.7264 5.61898 68.717 7.82691V7.83621C68.717 9.80191 69.956 10.9851 72.6029 11.5627L74.1047 11.8887C75.9632 12.2986 76.7422 12.9601 76.7422 14.1432V14.1525C76.7422 15.5407 75.5126 16.4164 73.5603 16.4164C71.5986 16.4164 70.2845 15.5872 70.0874 14.2364L70.0686 14.106H68.379L68.3884 14.2364C68.5574 16.5375 70.5379 17.9628 73.4664 17.9628C76.5639 17.9628 78.4693 16.4536 78.4693 14.0687V14.0594C78.4693 12.0098 77.3054 10.8919 74.527 10.2864Z" fill="url(#paint7_linear_291_51)"/>
<path d="M84.9555 7.86426C83.557 7.86426 82.4682 8.56296 81.8581 9.69024H81.8205V8.0506H80.1869V21H81.8205V16.1184H81.8581C82.4681 17.2363 83.6039 17.9257 84.9837 17.9257C87.4335 17.9257 89.1043 15.96 89.1043 12.9043V12.895C89.1043 9.83934 87.4523 7.86426 84.9555 7.86426ZM87.4335 12.9043C87.4335 15.1122 86.3635 16.491 84.6364 16.491C82.9938 16.491 81.8111 15.0656 81.8111 12.9043V12.895C81.8111 10.7243 82.9844 9.29895 84.6364 9.29895C86.3635 9.29895 87.4335 10.6684 87.4335 12.895V12.9043Z" fill="url(#paint8_linear_291_51)"/>
<path d="M92.4646 4.29614H90.8314V17.7393H92.4646V4.29614Z" fill="url(#paint9_linear_291_51)"/>
<path d="M98.4906 7.86426C96.1909 7.86426 94.7924 9.1499 94.6516 10.743L94.6422 10.8454H96.2191L96.2379 10.7616C96.4256 9.89519 97.2141 9.29895 98.4718 9.29895C99.8328 9.29895 100.612 10.0163 100.612 11.1994V12.0099L97.8148 12.1683C95.5715 12.2987 94.2762 13.3328 94.2762 14.9818V15.0004C94.2762 16.7612 95.5809 17.9257 97.5238 17.9257C98.8285 17.9257 100.002 17.227 100.574 16.1649H100.612V17.7393H102.245V11.0411C102.245 9.10331 100.8 7.86426 98.4906 7.86426ZM100.612 14.0595C100.612 15.4662 99.4292 16.5189 97.8898 16.5189C96.7166 16.5189 95.9469 15.932 95.9469 15.0004V14.9818C95.9469 14.0781 96.6978 13.5005 98.0025 13.426L100.612 13.2676L100.612 14.0595Z" fill="url(#paint10_linear_291_51)"/>
<path d="M108.891 12.4012L107.342 12.0285C106.262 11.7677 105.821 11.3112 105.821 10.6497V10.6404C105.821 9.78337 106.553 9.21508 107.736 9.21508C108.947 9.21508 109.67 9.83926 109.801 10.7802L109.81 10.8454H111.368L111.359 10.7243C111.237 9.10331 109.876 7.86426 107.736 7.86426C105.624 7.86426 104.15 9.04742 104.15 10.715V10.7243C104.15 12.1217 105.042 12.9695 106.882 13.4074L108.431 13.78C109.538 14.0502 109.904 14.4415 109.904 15.1402V15.1495C109.904 16.0252 109.116 16.5748 107.792 16.5748C106.459 16.5748 105.737 16.0065 105.54 15.0377L105.521 14.9445H103.888L103.897 15.0283C104.094 16.7611 105.483 17.9256 107.783 17.9256C109.96 17.9256 111.575 16.7332 111.575 15.0377V15.0284C111.575 13.6495 110.862 12.8763 108.891 12.4012Z" fill="url(#paint11_linear_291_51)"/>
<path d="M118.061 7.86424C116.606 7.86424 115.545 8.50706 115.02 9.59705H114.982V4.29614H113.349V17.7393H114.982V12.0844C114.982 10.4355 115.987 9.29889 117.498 9.29889C119.018 9.29889 119.919 10.333 119.919 12.0844V17.7393H121.553V11.8049C121.553 9.45729 120.135 7.86424 118.061 7.86424Z" fill="url(#paint12_linear_291_51)"/>
<path d="M124.631 17.8697C125.222 17.8697 125.701 17.3942 125.701 16.8077C125.701 16.2211 125.222 15.7456 124.631 15.7456C124.04 15.7456 123.561 16.2211 123.561 16.8077C123.561 17.3942 124.04 17.8697 124.631 17.8697Z" fill="url(#paint13_linear_291_51)"/>
<path d="M130.488 4.93186C131.501 3.25323 131.539 1.93861 131.102 1.09427C130.83 0.568468 130.38 0.223448 129.857 0.0779673C129.345 -0.0650094 128.766 -0.0134948 128.227 0.250318C127.288 0.710292 126.464 1.8202 126.366 3.67222C126.301 4.89521 126.471 5.71618 126.78 6.21543C127.005 6.58096 127.303 6.7873 127.643 6.86051C127.968 6.93095 128.32 6.87288 128.672 6.71241C129.317 6.41843 129.987 5.76201 130.488 4.93186ZM127.795 6.16602C127.642 6.13295 127.502 6.03024 127.387 5.84449C127.15 5.46187 127.024 4.77899 127.08 3.71081C127.163 2.15552 127.81 1.24483 128.544 0.88475C128.92 0.700872 129.316 0.66319 129.662 0.75974C129.999 0.853945 130.29 1.07741 130.467 1.41838C130.802 2.06756 130.74 3.13271 129.875 4.56645C129.445 5.27907 128.891 5.83328 128.376 6.06832C128.163 6.16467 127.964 6.20251 127.795 6.16602Z" fill="url(#paint14_linear_291_51)"/>
<path d="M124.088 5.03189C123.534 -0.553377 119.7 1.66429 121.786 5.95773C123.421 9.31921 124.322 7.39659 124.088 5.03189Z" fill="url(#paint15_linear_291_51)"/>
<path d="M129.707 8.19728C126.948 10.7338 129.065 11.0249 131.274 10.109C136.491 7.94586 133.231 4.95782 129.707 8.19728Z" fill="url(#paint16_linear_291_51)"/>
</g>
<defs>
<linearGradient id="paint0_linear_291_51" x1="18.7849" y1="30.7092" x2="140.531" y2="-24.8582" gradientUnits="userSpaceOnUse">
<stop stop-color="#87CDEA"/>
<stop offset="0.0675" stop-color="#96CECA"/>
<stop offset="0.2651" stop-color="#C2D274"/>
<stop offset="0.4265" stop-color="#E2D435"/>
<stop offset="0.5438" stop-color="#F6D60E"/>
<stop offset="0.6049" stop-color="#FED700"/>
<stop offset="0.6657" stop-color="#F7C20D"/>
<stop offset="1" stop-color="#D65454"/>
</linearGradient>
<linearGradient id="paint1_linear_291_51" x1="18.7849" y1="30.7093" x2="140.531" y2="-24.8581" gradientUnits="userSpaceOnUse">
<stop stop-color="#87CDEA"/>
<stop offset="0.0675" stop-color="#96CECA"/>
<stop offset="0.2651" stop-color="#C2D274"/>
<stop offset="0.4265" stop-color="#E2D435"/>
<stop offset="0.5438" stop-color="#F6D60E"/>
<stop offset="0.6049" stop-color="#FED700"/>
<stop offset="0.6657" stop-color="#F7C20D"/>
<stop offset="1" stop-color="#D65454"/>
</linearGradient>
<linearGradient id="paint2_linear_291_51" x1="18.7849" y1="30.7092" x2="140.531" y2="-24.8581" gradientUnits="userSpaceOnUse">
<stop stop-color="#87CDEA"/>
<stop offset="0.0675" stop-color="#96CECA"/>
<stop offset="0.2651" stop-color="#C2D274"/>
<stop offset="0.4265" stop-color="#E2D435"/>
<stop offset="0.5438" stop-color="#F6D60E"/>
<stop offset="0.6049" stop-color="#FED700"/>
<stop offset="0.6657" stop-color="#F7C20D"/>
<stop offset="1" stop-color="#D65454"/>
</linearGradient>
<linearGradient id="paint3_linear_291_51" x1="18.7849" y1="30.7091" x2="140.531" y2="-24.8583" gradientUnits="userSpaceOnUse">
<stop stop-color="#87CDEA"/>
<stop offset="0.0675" stop-color="#96CECA"/>
<stop offset="0.2651" stop-color="#C2D274"/>
<stop offset="0.4265" stop-color="#E2D435"/>
<stop offset="0.5438" stop-color="#F6D60E"/>
<stop offset="0.6049" stop-color="#FED700"/>
<stop offset="0.6657" stop-color="#F7C20D"/>
<stop offset="1" stop-color="#D65454"/>
</linearGradient>
<linearGradient id="paint4_linear_291_51" x1="18.7849" y1="30.7092" x2="140.531" y2="-24.8582" gradientUnits="userSpaceOnUse">
<stop stop-color="#87CDEA"/>
<stop offset="0.0675" stop-color="#96CECA"/>
<stop offset="0.2651" stop-color="#C2D274"/>
<stop offset="0.4265" stop-color="#E2D435"/>
<stop offset="0.5438" stop-color="#F6D60E"/>
<stop offset="0.6049" stop-color="#FED700"/>
<stop offset="0.6657" stop-color="#F7C20D"/>
<stop offset="1" stop-color="#D65454"/>
</linearGradient>
<linearGradient id="paint5_linear_291_51" x1="18.7849" y1="30.7093" x2="140.531" y2="-24.8581" gradientUnits="userSpaceOnUse">
<stop stop-color="#87CDEA"/>
<stop offset="0.0675" stop-color="#96CECA"/>
<stop offset="0.2651" stop-color="#C2D274"/>
<stop offset="0.4265" stop-color="#E2D435"/>
<stop offset="0.5438" stop-color="#F6D60E"/>
<stop offset="0.6049" stop-color="#FED700"/>
<stop offset="0.6657" stop-color="#F7C20D"/>
<stop offset="1" stop-color="#D65454"/>
</linearGradient>
<linearGradient id="paint6_linear_291_51" x1="18.785" y1="30.7092" x2="140.531" y2="-24.8581" gradientUnits="userSpaceOnUse">
<stop stop-color="#87CDEA"/>
<stop offset="0.0675" stop-color="#96CECA"/>
<stop offset="0.2651" stop-color="#C2D274"/>
<stop offset="0.4265" stop-color="#E2D435"/>
<stop offset="0.5438" stop-color="#F6D60E"/>
<stop offset="0.6049" stop-color="#FED700"/>
<stop offset="0.6657" stop-color="#F7C20D"/>
<stop offset="1" stop-color="#D65454"/>
</linearGradient>
<linearGradient id="paint7_linear_291_51" x1="18.7849" y1="30.7092" x2="140.531" y2="-24.8583" gradientUnits="userSpaceOnUse">
<stop stop-color="#87CDEA"/>
<stop offset="0.0675" stop-color="#96CECA"/>
<stop offset="0.2651" stop-color="#C2D274"/>
<stop offset="0.4265" stop-color="#E2D435"/>
<stop offset="0.5438" stop-color="#F6D60E"/>
<stop offset="0.6049" stop-color="#FED700"/>
<stop offset="0.6657" stop-color="#F7C20D"/>
<stop offset="1" stop-color="#D65454"/>
</linearGradient>
<linearGradient id="paint8_linear_291_51" x1="18.7849" y1="30.7092" x2="140.531" y2="-24.8581" gradientUnits="userSpaceOnUse">
<stop stop-color="#87CDEA"/>
<stop offset="0.0675" stop-color="#96CECA"/>
<stop offset="0.2651" stop-color="#C2D274"/>
<stop offset="0.4265" stop-color="#E2D435"/>
<stop offset="0.5438" stop-color="#F6D60E"/>
<stop offset="0.6049" stop-color="#FED700"/>
<stop offset="0.6657" stop-color="#F7C20D"/>
<stop offset="1" stop-color="#D65454"/>
</linearGradient>
<linearGradient id="paint9_linear_291_51" x1="18.7847" y1="30.7092" x2="140.531" y2="-24.8584" gradientUnits="userSpaceOnUse">
<stop stop-color="#87CDEA"/>
<stop offset="0.0675" stop-color="#96CECA"/>
<stop offset="0.2651" stop-color="#C2D274"/>
<stop offset="0.4265" stop-color="#E2D435"/>
<stop offset="0.5438" stop-color="#F6D60E"/>
<stop offset="0.6049" stop-color="#FED700"/>
<stop offset="0.6657" stop-color="#F7C20D"/>
<stop offset="1" stop-color="#D65454"/>
</linearGradient>
<linearGradient id="paint10_linear_291_51" x1="18.7849" y1="30.7092" x2="140.531" y2="-24.8581" gradientUnits="userSpaceOnUse">
<stop stop-color="#87CDEA"/>
<stop offset="0.0675" stop-color="#96CECA"/>
<stop offset="0.2651" stop-color="#C2D274"/>
<stop offset="0.4265" stop-color="#E2D435"/>
<stop offset="0.5438" stop-color="#F6D60E"/>
<stop offset="0.6049" stop-color="#FED700"/>
<stop offset="0.6657" stop-color="#F7C20D"/>
<stop offset="1" stop-color="#D65454"/>
</linearGradient>
<linearGradient id="paint11_linear_291_51" x1="18.785" y1="30.7092" x2="140.531" y2="-24.8581" gradientUnits="userSpaceOnUse">
<stop stop-color="#87CDEA"/>
<stop offset="0.0675" stop-color="#96CECA"/>
<stop offset="0.2651" stop-color="#C2D274"/>
<stop offset="0.4265" stop-color="#E2D435"/>
<stop offset="0.5438" stop-color="#F6D60E"/>
<stop offset="0.6049" stop-color="#FED700"/>
<stop offset="0.6657" stop-color="#F7C20D"/>
<stop offset="1" stop-color="#D65454"/>
</linearGradient>
<linearGradient id="paint12_linear_291_51" x1="18.7848" y1="30.7092" x2="140.531" y2="-24.8582" gradientUnits="userSpaceOnUse">
<stop stop-color="#87CDEA"/>
<stop offset="0.0675" stop-color="#96CECA"/>
<stop offset="0.2651" stop-color="#C2D274"/>
<stop offset="0.4265" stop-color="#E2D435"/>
<stop offset="0.5438" stop-color="#F6D60E"/>
<stop offset="0.6049" stop-color="#FED700"/>
<stop offset="0.6657" stop-color="#F7C20D"/>
<stop offset="1" stop-color="#D65454"/>
</linearGradient>
<linearGradient id="paint13_linear_291_51" x1="18.7847" y1="30.7091" x2="140.531" y2="-24.8584" gradientUnits="userSpaceOnUse">
<stop stop-color="#87CDEA"/>
<stop offset="0.0675" stop-color="#96CECA"/>
<stop offset="0.2651" stop-color="#C2D274"/>
<stop offset="0.4265" stop-color="#E2D435"/>
<stop offset="0.5438" stop-color="#F6D60E"/>
<stop offset="0.6049" stop-color="#FED700"/>
<stop offset="0.6657" stop-color="#F7C20D"/>
<stop offset="1" stop-color="#D65454"/>
</linearGradient>
<linearGradient id="paint14_linear_291_51" x1="18.7849" y1="30.7092" x2="140.531" y2="-24.8581" gradientUnits="userSpaceOnUse">
<stop stop-color="#87CDEA"/>
<stop offset="0.0675" stop-color="#96CECA"/>
<stop offset="0.2651" stop-color="#C2D274"/>
<stop offset="0.4265" stop-color="#E2D435"/>
<stop offset="0.5438" stop-color="#F6D60E"/>
<stop offset="0.6049" stop-color="#FED700"/>
<stop offset="0.6657" stop-color="#F7C20D"/>
<stop offset="1" stop-color="#D65454"/>
</linearGradient>
<linearGradient id="paint15_linear_291_51" x1="18.7848" y1="30.7093" x2="140.531" y2="-24.8582" gradientUnits="userSpaceOnUse">
<stop stop-color="#87CDEA"/>
<stop offset="0.0675" stop-color="#96CECA"/>
<stop offset="0.2651" stop-color="#C2D274"/>
<stop offset="0.4265" stop-color="#E2D435"/>
<stop offset="0.5438" stop-color="#F6D60E"/>
<stop offset="0.6049" stop-color="#FED700"/>
<stop offset="0.6657" stop-color="#F7C20D"/>
<stop offset="1" stop-color="#D65454"/>
</linearGradient>
<linearGradient id="paint16_linear_291_51" x1="18.785" y1="30.7091" x2="140.531" y2="-24.8582" gradientUnits="userSpaceOnUse">
<stop stop-color="#87CDEA"/>
<stop offset="0.0675" stop-color="#96CECA"/>
<stop offset="0.2651" stop-color="#C2D274"/>
<stop offset="0.4265" stop-color="#E2D435"/>
<stop offset="0.5438" stop-color="#F6D60E"/>
<stop offset="0.6049" stop-color="#FED700"/>
<stop offset="0.6657" stop-color="#F7C20D"/>
<stop offset="1" stop-color="#D65454"/>
</linearGradient>
<clipPath id="clip0_291_51">
<rect width="134" height="21" fill="white"/>
</clipPath>
</defs>
</svg>
