<?xml version="1.0" encoding="UTF-8"?>
<svg xmlns="http://www.w3.org/2000/svg" xmlns:xlink="http://www.w3.org/1999/xlink" viewBox="0 0 545.85274205 486.03962746">
  <defs>
    <linearGradient id="_ÂÁ_Ï_ÌÌ_È_ËÂÌÚ_94" data-name="¡ÂÁ˚ÏˇÌÌ˚È „‡‰ËÂÌÚ 94" x1="206.49478564" y1="131.85958662" x2="228.09556665" y2="190.49014996" gradientUnits="userSpaceOnUse">
      <stop offset="0" stop-color="#b4e1e2"/>
      <stop offset=".12281957" stop-color="#c4e6e3"/>
      <stop offset=".2770919" stop-color="#d0eae5"/>
      <stop offset=".48733998" stop-color="#d8ede5"/>
      <stop offset="1" stop-color="#daeee6"/>
    </linearGradient>
    <linearGradient id="_ÂÁ_Ï_ÌÌ_È_ËÂÌÚ_37" data-name="¡ÂÁ˚ÏˇÌÌ˚È „‡‰ËÂÌÚ 37" x1="-1240.27858208" y1="-1239.76286872" x2="-1107.74951235" y2="-1375.72513147" gradientTransform="translate(-769.64796704 1669.59599855) rotate(83.58640895)" gradientUnits="userSpaceOnUse">
      <stop offset=".0396825" stop-color="#12bfd9"/>
      <stop offset="1" stop-color="#dde78e"/>
    </linearGradient>
    <linearGradient id="_ÂÁ_Ï_ÌÌ_È_ËÂÌÚ_6" data-name="¡ÂÁ˚ÏˇÌÌ˚È „‡‰ËÂÌÚ 6" x1="400.24911764" y1="43.84714228" x2="424.93582085" y2="40.24700024" gradientUnits="userSpaceOnUse">
      <stop offset=".0396825" stop-color="#3cc5e7"/>
      <stop offset="1" stop-color="#dde78e"/>
    </linearGradient>
    <linearGradient id="_ÂÁ_Ï_ÌÌ_È_ËÂÌÚ_6-2" data-name="¡ÂÁ˚ÏˇÌÌ˚È „‡‰ËÂÌÚ 6" x1="393.09593701" y1="107.49931938" x2="438.53274657" y2="56.19974847" xlink:href="#_ÂÁ_Ï_ÌÌ_È_ËÂÌÚ_6"/>
    <linearGradient id="_ÂÁ_Ï_ÌÌ_È_ËÂÌÚ_6-3" data-name="¡ÂÁ˚ÏˇÌÌ˚È „‡‰ËÂÌÚ 6" x1="320.96200695" y1="281.87423927" x2="513.67098424" y2="89.16526198" xlink:href="#_ÂÁ_Ï_ÌÌ_È_ËÂÌÚ_6"/>
    <linearGradient id="_ÂÁ_Ï_ÌÌ_È_ËÂÌÚ_12" data-name="¡ÂÁ˚ÏˇÌÌ˚È „‡‰ËÂÌÚ 12" x1="416.56338868" y1="212.92834417" x2="418.10626014" y2="143.49749086" gradientUnits="userSpaceOnUse">
      <stop offset="0" stop-color="#0b1217"/>
      <stop offset="1" stop-color="#0b2f45"/>
    </linearGradient>
    <radialGradient id="_ÂÁ_Ï_ÌÌ_È_ËÂÌÚ_18" data-name="¡ÂÁ˚ÏˇÌÌ˚È „‡‰ËÂÌÚ 18" cx="376.26684309" cy="177.6916106" fx="376.26684309" fy="177.6916106" r="28.85581298" gradientUnits="userSpaceOnUse">
      <stop offset=".12963" stop-color="#4d78bc"/>
      <stop offset="1" stop-color="#010101"/>
    </radialGradient>
    <linearGradient id="_ÂÁ_Ï_ÌÌ_È_ËÂÌÚ_12-2" data-name="¡ÂÁ˚ÏˇÌÌ˚È „‡‰ËÂÌÚ 12" x1="358.68900882" y1="177.6916106" x2="393.84467737" y2="177.6916106" xlink:href="#_ÂÁ_Ï_ÌÌ_È_ËÂÌÚ_12"/>
    <radialGradient id="_ÂÁ_Ï_ÌÌ_È_ËÂÌÚ_18-2" data-name="¡ÂÁ˚ÏˇÌÌ˚È „‡‰ËÂÌÚ 18" cx="455.03521717" fx="455.03521717" r="28.85581335" xlink:href="#_ÂÁ_Ï_ÌÌ_È_ËÂÌÚ_18"/>
    <linearGradient id="_ÂÁ_Ï_ÌÌ_È_ËÂÌÚ_12-3" data-name="¡ÂÁ˚ÏˇÌÌ˚È „‡‰ËÂÌÚ 12" x1="437.45738246" y1="177.6916106" x2="472.61305189" y2="177.6916106" xlink:href="#_ÂÁ_Ï_ÌÌ_È_ËÂÌÚ_12"/>
    <linearGradient id="_ÂÁ_Ï_ÌÌ_È_ËÂÌÚ_6-4" data-name="¡ÂÁ˚ÏˇÌÌ˚È „‡‰ËÂÌÚ 6" x1="394.82554339" y1="14.03703608" x2="427.49592892" y2="9.27260775" xlink:href="#_ÂÁ_Ï_ÌÌ_È_ËÂÌÚ_6"/>
    <linearGradient id="_ÂÁ_Ï_ÌÌ_È_ËÂÌÚ_28" data-name="¡ÂÁ˚ÏˇÌÌ˚È „‡‰ËÂÌÚ 28" x1="415.96493159" y1="239.89587889" x2="466.22874999" y2="189.63206049" gradientUnits="userSpaceOnUse">
      <stop offset=".0714286" stop-color="#11a9ab"/>
      <stop offset="1" stop-color="#dde78e"/>
    </linearGradient>
    <linearGradient id="_ÂÁ_Ï_ÌÌ_È_ËÂÌÚ_49" data-name="¡ÂÁ˚ÏˇÌÌ˚È „‡‰ËÂÌÚ 49" x1="368.49278932" y1="392.42635513" x2="501.66649951" y2="236.91374362" gradientUnits="userSpaceOnUse">
      <stop offset=".0396825" stop-color="#3cc5e7"/>
      <stop offset=".06317533" stop-color="#42c5e2"/>
      <stop offset=".20541172" stop-color="#68cbca"/>
      <stop offset=".33724347" stop-color="#83ceb9"/>
      <stop offset=".45365281" stop-color="#94d1ae"/>
      <stop offset=".542328" stop-color="#9ad2ab"/>
      <stop offset=".84732426" stop-color="#c5df98"/>
      <stop offset="1" stop-color="#dde78e"/>
    </linearGradient>
    <linearGradient id="_ÂÁ_Ï_ÌÌ_È_ËÂÌÚ_6-5" data-name="¡ÂÁ˚ÏˇÌÌ˚È „‡‰ËÂÌÚ 6" x1="361.43827445" y1="314.8966697" x2="441.52390888" y2="221.37726457" xlink:href="#_ÂÁ_Ï_ÌÌ_È_ËÂÌÚ_6"/>
    <linearGradient id="_ÂÁ_Ï_ÌÌ_È_ËÂÌÚ_38" data-name="¡ÂÁ˚ÏˇÌÌ˚È „‡‰ËÂÌÚ 38" x1="-2803.3180441" y1="129.33633939" x2="-2693.76693598" y2="72.24638789" gradientTransform="translate(-2218.38147114 -180.55647303) rotate(-171.3440103) scale(.9999901 -.9999901)" gradientUnits="userSpaceOnUse">
      <stop offset=".0396825" stop-color="#3cc5e7"/>
      <stop offset=".25665206" stop-color="#66cdcf"/>
      <stop offset=".60895236" stop-color="#a6dbac"/>
      <stop offset=".8665296" stop-color="#cde396"/>
      <stop offset="1" stop-color="#dde78e"/>
    </linearGradient>
    <linearGradient id="_ÂÁ_Ï_ÌÌ_È_ËÂÌÚ_37-2" data-name="¡ÂÁ˚ÏˇÌÌ˚È „‡‰ËÂÌÚ 37" x1="445.64244374" y1="362.13236183" x2="516.30765856" y2="325.30686772" gradientTransform="matrix(1, 0, 0, 1, 0, 0)" xlink:href="#_ÂÁ_Ï_ÌÌ_È_ËÂÌÚ_37"/>
    <radialGradient id="_ÂÁ_Ï_ÌÌ_È_ËÂÌÚ_69" data-name="¡ÂÁ˚ÏˇÌÌ˚È „‡‰ËÂÌÚ 69" cx="400.7342884" cy="349.48503131" fx="400.7342884" fy="349.48503131" r="81.44888305" gradientTransform="translate(15.5913034 307.50365629) scale(1.012 .4143)" gradientUnits="userSpaceOnUse">
      <stop offset="0" stop-color="#bdd8d7"/>
      <stop offset="1" stop-color="#fff"/>
    </radialGradient>
    <linearGradient id="_ÂÁ_Ï_ÌÌ_È_ËÂÌÚ_96" data-name="¡ÂÁ˚ÏˇÌÌ˚È „‡‰ËÂÌÚ 96" x1="0" y1="79.71690155" x2="272.07982577" y2="79.71690155" gradientUnits="userSpaceOnUse">
      <stop offset="0" stop-color="#daeee6"/>
      <stop offset=".505291" stop-color="#ecf7f2"/>
      <stop offset="1" stop-color="#daeee6"/>
    </linearGradient>
    <linearGradient id="linear-gradient" x1="60.42434935" y1="110.73911493" x2="253.38539812" y2="23.32605046" gradientUnits="userSpaceOnUse">
      <stop offset="0" stop-color="#87cdea"/>
      <stop offset=".06750593" stop-color="#96ceca"/>
      <stop offset=".26505548" stop-color="#c2d274"/>
      <stop offset=".42653168" stop-color="#e2d435"/>
      <stop offset=".54379756" stop-color="#f6d60e"/>
      <stop offset=".60487084" stop-color="#fed700"/>
      <stop offset=".665694" stop-color="#f7c20d"/>
      <stop offset="1" stop-color="#d65454"/>
    </linearGradient>
  </defs>
  <g isolation="isolate">
    <g id="Layer_2" data-name="Layer 2">
      <g id="Layer_1-2" data-name="Layer 1">
        <g>
          <g>
            <path d="M239.26576314,135.72680631s3.48502855,46.96045435,23.02853517,58.04226422c0,0-62.744792-10.83572287-78.17385849-34.33526745-15.42923447-23.49954458,55.14532332-23.70699676,55.14532332-23.70699676Z" fill="url(#_ÂÁ_Ï_ÌÌ_È_ËÂÌÚ_94)"/>
            <path d="M301.76043669,274.28201731c38.66404596,10.5901398,47.79866073,7.62567336,54.68825663,17.99038739,.7910059,1.18995242,4.83170392,7.26939313,4.02255645,15.07413048-.6448655,6.21902999-4.10822496,11.01713854-6.28802779,13.12743954-13.24489624,12.82205649-49.69109615-2.86401592-70.56435194-20.01905134-4.55101357-3.74018642-16.76011995-13.77432079-14.30109778-20.90210891,1.00736088-2.9201204,4.13795697-4.37077386,6.38301465-5.37494319,9.93045321-4.4419963,20.23015971-1.49247985,26.05964979,.10414603Z" fill="url(#_ÂÁ_Ï_ÌÌ_È_ËÂÌÚ_37)"/>
            <rect x="412.90541674" y="14.40054082" width="8.22892273" height="54.00173407" fill="url(#_ÂÁ_Ï_ÌÌ_È_ËÂÌÚ_6)"/>
            <rect x="381.01594356" y="62.74496157" width="72.00791135" height="35.48692101" rx="4.5169" ry="4.5169" fill="url(#_ÂÁ_Ï_ÌÌ_È_ËÂÌÚ_6-2)"/>
            <path d="M351.1057173,79.71690155h131.82832475c34.72577585,0,62.9187,28.19292415,62.9187,62.9187v97.66761812c0,19.5174262-15.8456738,35.3631-35.3631,35.3631h-186.93952564c-19.51742571,0-35.36309911-15.8456734-35.36309911-35.36309911v-97.66761901c0-34.72577585,28.19292415-62.9187,62.9187-62.9187Z" fill="url(#_ÂÁ_Ï_ÌÌ_È_ËÂÌÚ_6-3)"/>
            <path d="M505.32498504,210.63871222h-.00016798c-3.37164384,1.66650451-7.15096902,2.5398194-10.99143799,2.5398194h-154.6270001c-3.84063685,0-7.61979395-.87331488-10.99143771-2.5398194h0c-8.28061732-4.09277114-12.95509432-12.35911058-11.78529923-20.84012523l.08520442-.61714924c3.96204472-28.72230018,29.9763794-50.80495478,61.86723785-52.46356435,13.49295818-.70180988,27.65413073-1.0648092,42.42476802-.97863676,11.57096027,.06752694,22.75490044,.40616953,33.52292839,.96150306,32.01264293,1.65037868,58.2176327,23.64518105,62.19466736,52.47633064,.02855617,.20711622,.05711234,.41423245,.08566851,.62151665,1.1699631,8.48101465-3.504682,16.74735409-11.78513155,20.84012523Z" fill="url(#_ÂÁ_Ï_ÌÌ_È_ËÂÌÚ_12)"/>
            <g>
              <circle cx="376.26684309" cy="177.6916106" r="29.15685754" fill="url(#_ÂÁ_Ï_ÌÌ_È_ËÂÌÚ_18)" mix-blend-mode="screen"/>
              <circle cx="376.26689529" cy="177.6916106" r="20.92798287" fill="#eff9fc"/>
              <circle cx="376.26684309" cy="177.6916106" r="17.57783449" fill="url(#_ÂÁ_Ï_ÌÌ_È_ËÂÌÚ_12-2)"/>
              <path d="M387.52754869,173.13690142c0,3.59622973-2.91520742,6.51164675-6.51160513,6.51164675-3.5962711,0-6.51152007-2.91541703-6.51152007-6.51164675s2.91524898-6.51147878,6.51152007-6.51147878c3.5963977,0,6.51160513,2.91524905,6.51160513,6.51147878Z" fill="#eff9fc"/>
              <circle cx="373.66890356" cy="191.17113093" r="2.59793957" fill="#eff9fc"/>
              <path d="M367.22528784,187.27405355c0,.71743179-.5814969,1.29913778-1.29896977,1.29913778-.71743177,0-1.29896977-.58170599-1.29896977-1.29913778,0-.71726381,.581538-1.2989698,1.29896977-1.2989698,.71747287,0,1.29896977,.58170599,1.29896977,1.2989698Z" fill="#eff9fc"/>
            </g>
            <g>
              <circle cx="455.03521717" cy="177.6916106" r="29.15685791" fill="url(#_ÂÁ_Ï_ÌÌ_È_ËÂÌÚ_18-2)" mix-blend-mode="screen"/>
              <circle cx="455.03521717" cy="177.6916106" r="20.92797744" fill="#eff9fc"/>
              <circle cx="455.03521717" cy="177.6916106" r="17.57783472" fill="url(#_ÂÁ_Ï_ÌÌ_È_ËÂÌÚ_12-3)"/>
              <path d="M466.29592305,173.13690142c0,3.59622973-2.91541703,6.51164675-6.51164675,6.51164675s-6.51164675-2.91541703-6.51164675-6.51164675,2.91541703-6.51147878,6.51164675-6.51147878,6.51164675,2.91524905,6.51164675,6.51147878Z" fill="#eff9fc"/>
              <circle cx="452.43727757" cy="191.17113093" r="2.5979396" fill="#eff9fc"/>
              <path d="M445.9936617,187.27405355c0,.71743179-.58153801,1.29913778-1.2989698,1.29913778s-1.2989698-.58170599-1.2989698-1.29913778c0-.71726381,.58153801-1.2989698,1.2989698-1.2989698s1.2989698,.58170599,1.2989698,1.2989698Z" fill="#eff9fc"/>
            </g>
            <path d="M427.56317332,10.80027964c0,5.82293911-4.72033498,10.54327409-10.54331646,10.54327409-5.82277099,0-10.54310585-4.72033498-10.54310585-10.54327409,0-5.82277113,4.72033486-10.54310611,10.54310585-10.54310611,5.82298148,0,10.54331646,4.72033498,10.54331646,10.54310611Z" fill="url(#_ÂÁ_Ï_ÌÌ_È_ËÂÌÚ_6-4)"/>
            <path d="M424.3487564,6.68600738c0,1.77518594-1.43906301,3.21424895-3.21441693,3.21424895-1.77522837,0-3.21445932-1.43906301-3.21445932-3.21424895,0-1.77535392,1.43923095-3.21441693,3.21445932-3.21441693,1.77535392,0,3.21441693,1.43906301,3.21441693,3.21441693Z" fill="#fff"/>
            <path d="M507.80181289,113.52337591c.14009321,4.92257986-3.87792795,10.8086785-8.48151858,11.31210699-4.31433342,.47168075-7.75904747-3.9357122-11.31210699-8.48151858-3.50165841-4.48012719-11.1605913-15.9889358-8.1107923-19.24467518,4.0222206-4.2936722,27.57434213,4.80096416,27.90441787,16.41408678Z" fill="#fff"/>
            <circle cx="468.39144203" cy="91.09586356" r="3.66442858" fill="#fff"/>
            <path d="M507.28007485,181.80285926c-1.17567434,.82964074-9.37213515-15.86698415-31.37248078-30.34378673-7.73351489-5.08887755-15.36842701-8.71618311-14.91471986-9.77175355,.4600903-1.07068841,9.05936109,.92034858,15.9434139,4.11427225,21.93332262,10.17624331,31.74119133,35.01507229,30.34378673,36.00126803Z" fill="#fff"/>
            <path d="M450.94059828,73.25060871c-.2617089,.03762695-.42985435-1.50306243-1.71253034-3.88414312,0,0-.59967958-1.11318672-1.28569958-2.05705214-2.20974366-3.04005631-9.69717156-2.97269735-10.28542867-2.96765802-11.6631799,.10145839-19.16089683-.63781047-19.15837717-.56826779,.00201573,.05929605,5.47123669-.05190504,9.47833932-.13354209,11.30639575-.23012914,18.04262839-.83787164,20.9298252,2.19076221,1.19801534,1.25680746,1.8000466,2.89290805,1.8000466,2.89290805,.81721041,2.22083017,.54575881,4.48197494,.23382464,4.52699291Z" fill="#fff"/>
            <path d="M448.51533953,225.69167754c-.28488979,2.79363336-2.61070589,4.94508884-5.40601902,5.21469268l-38.62461429,3.72439654c-2.79409524,.26960384-5.48748796-1.39639674-6.30184273-4.08269249-.36199145-1.19364793-.64100202-2.4264346-.83111064-3.69180891-.05261882-.35006505,.04111261-.7061773,.25897938-.98518788,.21786678-.27884261,.54088745-.45555491,.8931362-.48965433l48.72879511-4.7000097c.34720944-.03342752,.69290708,.07726964,.95612778,.30622293,.2632207,.22878532,.42044762,.55583746,.43556559,.90439072,.05610448,1.28351587,.01814157,2.55308962-.10901738,3.79965045Z" fill="#eff9fc"/>
            <path d="M448.51685132,225.69402922c-1.23429847,11.97293037-10.75408582,21.81674626-23.1899621,23.00468295-12.26609333,1.18793669-23.34420741-6.41841926-26.98545501-17.68181277,.97208561,2.40711719,3.50249821,3.87272065,6.14096237,3.61050781l38.63431493-3.71834935c2.79262549-.27783474,5.10701912-2.42240314,5.40013981-5.21502864Z" fill="url(#_ÂÁ_Ï_ÌÌ_È_ËÂÌÚ_28)"/>
            <path d="M509.37055451,312.44280374c0,.3549364,0,.69441887-.01545393,1.01844742-.12329547,3.24011748-.87953005,5.67797455-1.24992038,6.77335566-10.6304544,32.47827649-17.00267985,49.60458776-25.93605783,63.45987369-1.54287309,2.39132731-3.16284784,4.69026701-4.906622,6.9430129-2.28348577,3.0088125-4.7828226,5.94018739-7.55999416,8.96428584-6.17166035,6.71170792-15.50633652,9.7512603-18.51498104,10.80027962-11.00084473,3.88817457-20.72136515,3.17846975-27.18614619,3.24028546h-1.12628896c-6.48027732-.06181571-16.1851756,.64788911-27.18602005-3.24028546-3.00864445-1.04901932-12.35877431-4.0885717-18.51498057-10.80027962-16.97193954-18.46861926-23.49836815-33.8204165-38.40300898-79.36717243-.35476841-1.04901932-1.06447322-3.31705117-1.23429844-6.35677152-.0461938-.87936207-.06164773-1.75889212-.01545393-2.63842217,.32419652-5.44633362,2.53041259-10.78499367,6.44949492-15.66037186,6.71174845-8.36242255,17.07994905-12.945016,27.80312675-12.99120981l51.67209573-.21618701,50.73070874-.20039713c10.9548189-.04636178,21.56981937,4.55151762,28.5282862,13.02194969,3.3637489,4.10402563,5.5083173,8.53241576,6.29529177,13.0993873,.10800952,.64788911,.2005651,1.31140013,.26204486,1.95945723,.06181571,.72515875,.10817749,1.4503175,.10817749,2.19076221Z" fill="url(#_ÂÁ_Ï_ÌÌ_È_ËÂÌÚ_49)"/>
            <path d="M423.43848647,282.37785961l-51.67209573,.21601903c-10.72317769,.04636178-21.09141899,4.62878725-27.80312675,12.99120981-3.91908233,4.87571414-6.12529841,10.21420622-6.44949492,15.66053984,.26238081-5.58525099,2.56132045-11.06266044,6.65006002-16.04621612,6.94301273-8.47060005,17.57363484-13.06847945,28.52828548-13.02211766l50.74637189,.2005651Z" fill="url(#_ÂÁ_Ï_ÌÌ_È_ËÂÌÚ_6-5)"/>
            <path d="M474.79524725,358.50407467c-.75505874-40.08110491-6.17753956-48.00728996,1.82070783-57.54253123,.91833285-1.09470919,5.60994368-6.68735119,13.32565296-8.11431983,6.1481435-1.13687154,11.72869112,.83132052,14.36862509,2.32682396,16.03932904,9.08674142,11.27951936,48.47863475,.71457617,73.34551597-2.30330711,5.42164093-8.48303038,19.96681034-16.01514028,19.61976888-3.08557821-.14194096-5.36116904-2.73584911-6.95813088-4.60594232-7.06446062-8.27272258-7.14257014-18.98615785-7.25629089-25.02931543Z" fill="url(#_ÂÁ_Ï_ÌÌ_È_ËÂÌÚ_38)"/>
            <path d="M482.16912237,383.6944805c-1.54287309,2.39132731-3.16284784,4.69026701-4.906622,6.9430129-.55516555-.57078745-1.04901932-1.14174289-1.49651131-1.66616856-7.06647635-8.27020292-7.14357801-18.97792696-7.25158752-25.02595588-.75606661-40.08480041-6.18711427-48.00006693,1.82053986-57.53514023,.58640936-.70970482,2.73097776-3.25573939,6.21785415-5.36923196-7.89964461,9.50416544-2.51462278,17.49653362-1.75872415,57.45787059,.10800952,6.04802893,.20039713,16.75592094,7.25158752,25.04140981,.04636178,.04619381,.09272357,.09255559,.12346344,.15420332Z" fill="url(#_ÂÁ_Ï_ÌÌ_È_ËÂÌÚ_37-2)"/>
            <path d="M504.78712117,325.12745466c-.22676959-4.30610253-1.03457326-7.47382172-2.6501806-13.80909213-2.11349257-8.28817651-4.76400912-12.32786677-3.04257597-13.92818815,1.1207457-1.04179629,3.32813768-.33763472,3.82820662-.1782241,7.57544809,2.41635595,9.92074957,16.62960188,9.59504125,25.52501696-.19955724,5.44532575-1.52909894,11.53534905-3.52467132,11.80428098-.31428585,.04233032-1.09756481,.00134382-1.6569298-.49351782-2.22570152-1.96869599-2.37637731-5.64605883-2.54889018-8.92027574Z" fill="#fff"/>
            <path d="M509.98854363,340.32706431c0,.86810758-.70382561,1.5719332-1.5719332,1.5719332s-1.57176522-.70382561-1.57176522-1.5719332,.70365764-1.57176522,1.57176522-1.57176522,1.5719332,.70365764,1.5719332,1.57176522Z" fill="#fff"/>
            <ellipse cx="421.13437136" cy="452.29530476" rx="82.42611451" ry="33.7443227" fill="url(#_ÂÁ_Ï_ÌÌ_È_ËÂÌÚ_69)" mix-blend-mode="soft-light"/>
            <rect x="0" y="0" width="272.07982576" height="159.43380309" rx="47.4568" ry="47.4568" fill="url(#_ÂÁ_Ï_ÌÌ_È_ËÂÌÚ_96)"/>
          </g>
          <g>
            <g>
              <polygon points="105.92436266 53.14520817 92.55986411 107.56765072 92.37615966 107.56765072 77.35832109 53.14520817 68.99976873 53.14520817 53.98193015 107.56765072 53.7982257 107.56765072 40.43372715 53.14520817 31.79961812 53.14520817 49.84858008 119.41658758 57.6560191 119.41658758 73.08719268 66.32600227 73.27089713 66.32600227 88.70207071 119.41658758 96.50950973 119.41658758 114.55847169 53.14520817 105.92436266 53.14520817" fill-rule="evenodd"/>
              <path d="M152.42299614,82.67569809l-7.3481779-1.60741391c-8.63410903-1.88297059-12.62968076-5.28150286-12.62968076-10.70078406v-.04592611c0-6.38372955,5.78669009-10.60893184,14.65042968-10.65485795,8.40447847,0,14.05339023,3.99557173,15.06376469,10.74671017l.09185222,.64296557h8.26670013l-.04592611-.68889168c-.73481779-10.8385624-10.19559683-18.32451863-23.14676038-18.32451863-13.64005522,0-23.28453871,7.62373457-23.33046482,18.50822308v.04592611c0,9.6904096,6.06224677,15.52302581,19.01341031,18.37044474l7.3481779,1.60741391c9.09337015,2.02074892,12.90523743,5.28150286,12.90523743,11.11411907v.04592611c0,6.84299067-6.01632065,11.16004518-15.56895192,11.16004518-9.59855738,0-16.02821304-4.08742396-16.99266139-10.74671017l-.09185222-.64296557h-8.26670013l.04592611,.64296557c.82667001,11.34374963,10.51707962,18.37044474,24.84602651,18.37044474,15.15561691,0,24.47861762-7.44003012,24.47861762-19.19711476v-.04592611c0-10.10374461-5.69483787-15.61487803-19.28896698-18.6000753Z" fill-rule="evenodd"/>
              <circle cx="194.44004984" cy="114.82397639" r="5.23557675"/>
              <path d="M223.09698685,56.27906731c4.95595371-8.27531128,5.13965815-14.75591622,3.00528994-18.91832891-1.33233564-2.59207454-3.53678901-4.29289547-6.09334257-5.01001257-2.50703947-.70491798-5.33747531-.45088917-7.97487797,.84963307-4.59500317,2.26748217-8.62454109,7.73902824-9.10485168,16.86911536-.31717721,6.02911777,.5104496,10.07611718,2.02170572,12.53735014,1.10366188,1.80188229,2.56133753,2.81919351,4.22472389,3.18014405,1.59258361,.34731622,3.31170322,.06099562,5.0360852-.73003382,3.15311462-1.44930371,6.43443963-4.6854202,8.88526745-8.77786733Zm-13.17648853,6.08413343c-.7494089-.16301378-1.43614779-.669397-1.99778587-1.58504886-1.15676394-1.88619977-1.77724485-5.25267944-1.50025299-10.51839521,.40376707-7.6672687,3.56908081-12.15654613,7.16232066-13.93175779,1.83919726-.90644271,3.7781403-1.09229995,5.47118727-.61629493,1.64759926,.46440389,3.07083033,1.56603257,3.93505451,3.24700003,1.6416193,3.20035632,1.33688041,8.45124178-2.89645463,15.51907903-2.10303321,3.51298876-4.81267381,6.24523362-7.33478278,7.40379155-1.03955668,.47492862-2.01165938,.66150345-2.83928619,.48162618Z" fill-rule="evenodd"/>
              <path d="M191.78016253,56.77205541c-2.70868381-27.53390005-21.47093569-16.60145224-11.26003015,4.56402697,7.99640583,16.57119363,12.40531257,7.0933119,11.26003015-4.56402697Z" fill-rule="evenodd"/>
              <path d="M219.27483403,72.37712631c-13.49797131,12.50446035-3.14091549,13.93941214,7.6665511,9.42454047,25.52798144-10.66394749,9.57487673-25.39414988-7.6665511-9.42454047Z" fill-rule="evenodd"/>
            </g>
            <g>
              <polygon points="105.92436266 53.14520817 92.55986411 107.56765072 92.37615966 107.56765072 77.35832109 53.14520817 68.99976873 53.14520817 53.98193015 107.56765072 53.7982257 107.56765072 40.43372715 53.14520817 31.79961812 53.14520817 49.84858008 119.41658758 57.6560191 119.41658758 73.08719268 66.32600227 73.27089713 66.32600227 88.70207071 119.41658758 96.50950973 119.41658758 114.55847169 53.14520817 105.92436266 53.14520817" fill="url(#linear-gradient)"/>
              <path d="M152.42299614,82.67569809l-7.3481779-1.60741391c-8.63410903-1.88297059-12.62968076-5.28150286-12.62968076-10.70078406v-.04592611c0-6.38372955,5.78669009-10.60893184,14.65042968-10.65485795,8.40447847,0,14.05339023,3.99557173,15.06376469,10.74671017l.09185222,.64296557h8.26670013l-.04592611-.68889168c-.73481779-10.8385624-10.19559683-18.32451863-23.14676038-18.32451863-13.64005522,0-23.28453871,7.62373457-23.33046482,18.50822308v.04592611c0,9.6904096,6.06224677,15.52302581,19.01341031,18.37044474l7.3481779,1.60741391c9.09337015,2.02074892,12.90523743,5.28150286,12.90523743,11.11411907v.04592611c0,6.84299067-6.01632065,11.16004518-15.56895192,11.16004518-9.59855738,0-16.02821304-4.08742396-16.99266139-10.74671017l-.09185222-.64296557h-8.26670013l.04592611,.64296557c.82667001,11.34374963,10.51707962,18.37044474,24.84602651,18.37044474,15.15561691,0,24.47861762-7.44003012,24.47861762-19.19711476v-.04592611c0-10.10374461-5.69483787-15.61487803-19.28896698-18.6000753Z" fill="url(#linear-gradient)"/>
              <circle cx="194.44004984" cy="114.82397639" r="5.23557675" fill="url(#linear-gradient)"/>
              <path d="M223.09698685,56.27906731c4.95595371-8.27531128,5.13965815-14.75591622,3.00528994-18.91832891-1.33233564-2.59207454-3.53678901-4.29289547-6.09334257-5.01001257-2.50703947-.70491798-5.33747531-.45088917-7.97487797,.84963307-4.59500317,2.26748217-8.62454109,7.73902824-9.10485168,16.86911536-.31717721,6.02911777,.5104496,10.07611718,2.02170572,12.53735014,1.10366188,1.80188229,2.56133753,2.81919351,4.22472389,3.18014405,1.59258361,.34731622,3.31170322,.06099562,5.0360852-.73003382,3.15311462-1.44930371,6.43443963-4.6854202,8.88526745-8.77786733Zm-13.17648853,6.08413343c-.7494089-.16301378-1.43614779-.669397-1.99778587-1.58504886-1.15676394-1.88619977-1.77724485-5.25267944-1.50025299-10.51839521,.40376707-7.6672687,3.56908081-12.15654613,7.16232066-13.93175779,1.83919726-.90644271,3.7781403-1.09229995,5.47118727-.61629493,1.64759926,.46440389,3.07083033,1.56603257,3.93505451,3.24700003,1.6416193,3.20035632,1.33688041,8.45124178-2.89645463,15.51907903-2.10303321,3.51298876-4.81267381,6.24523362-7.33478278,7.40379155-1.03955668,.47492862-2.01165938,.66150345-2.83928619,.48162618Z" fill="url(#linear-gradient)"/>
              <path d="M191.78016253,56.77205541c-2.70868381-27.53390005-21.47093569-16.60145224-11.26003015,4.56402697,7.99640583,16.57119363,12.40531257,7.0933119,11.26003015-4.56402697Z" fill="url(#linear-gradient)"/>
              <path d="M219.27483403,72.37712631c-13.49797131,12.50446035-3.14091549,13.93941214,7.6665511,9.42454047,25.52798144-10.66394749,9.57487673-25.39414988-7.6665511-9.42454047Z" fill="url(#linear-gradient)"/>
            </g>
          </g>
        </g>
      </g>
    </g>
  </g>
</svg>